HIERARCHY
ROOT Hips
{
	OFFSET 0.000000 0.000000 0.000000 
	CHANNELS 6 Xposition Yposition Zposition Yrotation Zrotation Xrotation 
	JOINT Lumbar
	{
		OFFSET 0.000000 0.000000 0.000000 
		CHANNELS 3 Zrotation Xrotation Yrotation
		JOINT Neck
		{
			OFFSET 0.000000 0.445665 0.000000 
			CHANNELS 3 Zrotation Xrotation Yrotation
			End Site
			{
				OFFSET 0.000000 0.227535 0.000000 
			}
		}
		JOINT RightShoulder
		{
			OFFSET 0.019635 0.377685 0.194865 
			CHANNELS 3 Zrotation Xrotation Yrotation
			JOINT RightElbow
			{
				OFFSET 0.000000 -0.243375 0.000000 
				CHANNELS 2 Zrotation Yrotation
				JOINT RightWrist
				{
					OFFSET 0.000000 -0.264825 0.000000 
					CHANNELS 2 Zrotation Xrotation
					End Site
					{
						OFFSET 0.006600 -0.176220 0.000990 
					}
				}
			}
		}
		JOINT LeftShoulder
		{
			OFFSET 0.019635 0.377685 -0.194865 
			CHANNELS 3 Zrotation Xrotation Yrotation
			JOINT LeftElbow
			{
				OFFSET 0.000000 -0.243375 0.000000 
				CHANNELS 2 Zrotation Yrotation
				JOINT LeftWrist
				{
					OFFSET 0.000000 -0.264825 0.000000 
					CHANNELS 2 Zrotation Xrotation
					End Site
					{
						OFFSET 0.006600 -0.176220 -0.000990 
					}
				}
			}
		}
	}
	JOINT RightHip
	{
		OFFSET 0.052140 -0.069960 0.075570 
		CHANNELS 3 Zrotation Xrotation Yrotation
		JOINT RightKnee
		{
			OFFSET 0.000000 -0.402270 0.000000 
			CHANNELS 1 Zrotation
			JOINT RightAnkle
			{
				OFFSET 0.000000 -0.404085 0.000000 
				CHANNELS 3 Zrotation Xrotation Yrotation
				End Site
				{
					OFFSET 0.204105 -0.089430 0.008415 
				}
			}
		}
	}
	JOINT LeftHip
	{
		OFFSET 0.052140 -0.069960 -0.075570 
		CHANNELS 3 Zrotation Xrotation Yrotation
		JOINT LeftKnee
		{
			OFFSET 0.000000 -0.402270 0.000000 
			CHANNELS 1 Zrotation
			JOINT LeftAnkle
			{
				OFFSET 0.000000 -0.404085 0.000000 
				CHANNELS 3 Zrotation Xrotation Yrotation
				End Site
				{
					OFFSET 0.204105 -0.089430 -0.008415 
				}
			}
		}
	}
}
MOTION
Frames: 20
Frame Time: 0.02
1.27085 0.95254 0.85471 1121.663 0 -8.0545 1.27264 6.13571 0.90236 -9.97367 7.19977 2.98907 1.20365 -17.16737 18.64779 29.17808 82.76123 4.79186 -2.83505 6.84666 0.96112 -25.25727 22.17895 -101.14605 -21.27306 7.2659 -10.19299 7.76444 2.59013 -16.58109 8.29554 -7.25484 -9.69862 17.9075 3.18111 14.36655 -13.37199 5.96113 6.91947 14.4295
1.2805 0.95255 0.83885 1121.60803 0 -7.80772 2.06638 5.45983 -0.14402 -11.5035 8.38578 3.67866 2.2652 -18.64883 18.08763 30.10123 84.4433 5.34074 -2.05195 7.98062 -0.56002 -23.56469 21.7701 -100.0862 -20.00086 7.2541 -9.92003 7.03079 2.24986 -18.84746 7.69302 -6.68775 -8.69835 17.67854 2.79305 13.8643 -14.67628 5.68888 6.8132 14.65104
1.29007 0.95316 0.82202 1121.64288 0 -7.55767 2.96389 4.78344 -1.23873 -13.36794 9.53863 4.56338 3.61557 -20.14513 17.50205 31.01914 86.36578 5.92006 -1.31595 9.42721 -2.05558 -21.86213 21.24462 -99.64595 -18.61522 7.35208 -9.44902 6.20836 1.7847 -21.47776 6.74482 -5.91223 -7.40064 17.2842 2.31703 13.13949 -15.81386 5.50692 6.7174 14.65694
1.29961 0.95351 0.80564 1121.64731 0 -7.31096 3.80913 4.11124 -2.30157 -15.0812 10.68833 5.36486 4.83097 -21.63002 16.94489 31.95622 88.17222 6.47499 -0.56538 10.73863 -3.54608 -20.22216 20.78242 -98.86597 -17.29184 7.38765 -9.02157 5.42549 1.38876 -23.99284 5.91137 -5.24354 -6.23495 16.93793 1.87419 12.52207 -16.9824 5.2974 6.62418 14.76095
1.30946 0.95383 0.78918 1121.60183 0 -7.05269 4.68319 3.41784 -3.41203 -16.80667 11.9196 6.151 6.07136 -23.14435 16.31003 32.83359 90.04004 7.07345 0.22331 12.03592 -5.12044 -18.31932 20.27874 -98.25886 -15.90151 7.46698 -8.7874 4.63673 0.93916 -26.31115 5.23867 -4.52211 -5.07436 16.70758 1.45595 11.86583 -18.36967 5.02696 6.49945 14.87492
1.31862 0.95435 0.77269 1121.68765 0 -6.81948 5.51643 2.77053 -4.43199 -18.57376 12.97112 7.00818 7.32139 -24.59455 15.83592 33.82654 91.81596 7.58782 0.91529 13.42562 -6.50678 -16.96777 19.83314 -97.47055 -14.63256 7.48499 -8.105 3.8458 0.57243 -29.11313 4.1711 -3.86243 -3.84107 16.19636 0.96804 11.239 -19.25073 4.90514 6.44232 14.91137
1.32604 0.95533 0.75624 1122.06963 0 -6.6529 6.24405 2.24757 -5.19684 -20.45067 13.53593 8.06717 8.56701 -25.89468 15.78018 35.17973 93.38471 7.87584 1.38291 15.06079 -7.40561 -17.1497 19.57554 -95.98349 -13.72105 7.30388 -6.23045 3.03312 0.4605 -33.24041 1.90907 -3.41541 -2.41386 14.94437 0.29917 10.78902 -18.77055 5.18763 6.578 14.80545
1.33276 0.95649 0.73982 1122.58984 0 -6.51316 6.92016 1.77278 -5.86681 -22.3417 13.91964 9.18046 9.8033 -27.1223 15.89235 36.64071 94.82966 8.07641 1.74782 16.76371 -8.10946 -17.88744 19.38048 -94.31119 -12.94014 7.05923 -3.91358 2.22966 0.43718 -37.82202 -0.7043 -3.03997 -0.93696 13.41634 -0.4338 10.37068 -17.78359 5.61448 6.77976 14.62419
1.33973 0.95753 0.72348 1123.07533 0 -6.3633 7.59821 1.27776 -6.5754 -24.17554 14.38518 10.23363 11.01824 -28.363 15.9505 38.02548 96.25897 8.30806 2.13874 18.39151 -8.88472 -18.36811 19.1569 -92.76408 -12.10545 6.84669 -1.80014 1.44666 0.37642 -42.14819 -3.03148 -2.63705 0.47442 12.0179 -1.13121 9.91353 -17.02659 5.96535 6.94596 14.46374
1.34699 0.95874 0.70672 1123.44262 0 -6.20283 8.37141 0.77318 -7.30551 -26.2383 14.85343 11.44376 12.35507 -29.69135 15.91848 39.5261 98.00094 8.5756 2.61654 20.22061 -9.73322 -18.86849 18.929 -91.06404 -11.24087 6.62356 0.33476 0.55416 0.2995 -46.71088 -5.89997 -2.20353 2.07997 10.59559 -1.86158 9.55258 -16.26412 6.36257 7.1365 14.35256
1.35347 0.95965 0.69085 1124.09112 0 -6.07298 8.93183 0.30307 -7.96668 -27.81981 15.27118 12.33675 13.42738 -30.8158 16.10835 40.80986 99.05873 8.74936 2.88816 21.63854 -10.38154 -19.45813 18.72736 -89.63095 -10.47366 6.40678 2.52202 -0.1041 0.27874 -50.86276 -7.72606 -1.85595 3.28588 9.16041 -2.53397 9.00034 -15.39687 6.69703 7.29109 14.12372
1.35804 0.95967 0.67743 1125.45475 0 -6.00289 8.92426 -0.11033 -8.46747 -28.09417 15.61364 12.34339 13.80839 -31.42825 16.92332 41.47809 98.25939 8.66671 2.62807 21.93444 -10.53847 -20.17548 18.57568 -88.97863 -9.92361 6.21619 4.78933 -0.14151 0.3938 -53.94512 -6.53525 -1.70794 3.40042 7.75092 -3.05897 7.92552 -14.34578 6.81749 7.33717 13.5879
1.36185 0.9594 0.66492 1127.10198 0 -5.96585 8.70211 -0.48593 -8.90015 -27.87643 15.90845 12.02705 13.91445 -31.83212 17.94617 41.92257 96.77541 8.49571 2.1625 21.80636 -10.49847 -20.9604 18.45022 -88.59882 -9.47162 6.0349 7.08387 0.06099 0.56267 -56.56096 -4.29325 -1.6487 3.10458 6.34013 -3.51757 6.65569 -13.21121 6.87061 7.34335 12.93713
1.36598 0.95927 0.652 1128.63616 0 -5.92604 8.57354 -0.861 -9.35992 -27.86687 16.21157 11.85643 14.12167 -32.30895 18.83865 42.46312 95.60081 8.37782 1.78226 21.852 -10.53946 -21.70312 18.31807 -88.09245 -8.98805 5.85342 9.33759 0.17015 0.70571 -59.27646 -2.56276 -1.56326 2.97974 4.9347 -3.98759 5.46768 -12.12738 6.9574 7.36334 12.34077
1.37017 0.95909 0.63907 1130.10563 0 -5.83661 8.46136 -1.30817 -9.83469 -27.92688 16.56266 11.69423 14.43213 -32.8736 19.88763 43.03108 94.42434 8.20369 1.42995 21.98296 -10.60855 -22.51359 18.16589 -87.59135 -8.45318 5.65298 11.73121 0.21496 0.85684 -62.49334 -0.69416 -1.42083 2.92409 3.49885 -4.53941 4.30971 -10.97053 7.03547 7.40432 11.7337
1.37407 0.95895 0.62637 1131.77887 0 -5.85658 8.26285 -1.59806 -10.2608 -27.72039 16.80745 11.43467 14.45866 -33.20906 20.65894 43.4875 93.09719 8.12498 0.97506 21.83119 -10.57614 -23.19194 18.06095 -87.14642 -8.04796 5.49478 13.8288 0.44865 1.0037 -64.53544 1.13111 -1.41685 2.62389 2.13038 -4.90382 3.042 -9.95404 7.11492 7.39072 11.12112
1.37742 0.95902 0.61402 1133.91467 0 -6.18266 7.89483 -1.45226 -10.59006 -26.93589 16.74819 11.005 13.79932 -32.94216 20.60297 43.6886 91.46567 8.347 0.26142 21.03048 -10.30114 -23.4842 18.07928 -86.7896 -7.96617 5.45381 15.14474 1.16241 1.11725 -63.56213 2.66821 -1.77645 1.76982 0.94424 -4.76997 1.52458 -9.3364 7.20425 7.23941 10.53476
1.38049 0.95912 0.60187 1136.25025 0 -6.61504 7.44464 -1.15167 -10.8689 -25.89313 16.58804 10.4846 12.85813 -32.45564 20.26189 43.78469 89.71682 8.66502 -0.54304 19.95426 -9.93337 -23.63899 18.14409 -86.48105 -8.01277 5.45499 16.15159 2.05441 1.22571 -61.39987 4.1116 -2.2709 0.68138 -0.17163 -4.44902 -0.09674 -8.86762 7.29851 7.03307 9.94452
1.38367 0.95918 0.58964 1138.51446 0 -6.99097 7.02144 -0.92917 -11.15814 -24.94382 16.49032 9.9924 12.02553 -32.08392 20.05614 43.93013 88.05928 8.93003 -1.28849 18.98538 -9.61639 -23.85737 18.18778 -86.15122 -8.00691 5.43505 17.2699 2.8539 1.34166 -59.70341 5.54043 -2.70193 -0.31608 -1.31593 -4.21131 -1.67555 -8.3387 7.3966 6.85013 9.34799
1.38692 0.95932 0.5774 1140.70884 0 -7.40348 6.63397 -0.67274 -11.49937 -24.07805 16.32332 9.54366 11.26498 -31.64299 19.83123 44.06237 86.2187 9.23396 -2.11603 18.07713 -9.25745 -24.07491 18.23236 -85.82712 -7.97984 5.4229 18.51211 3.71165 1.43797 -58.30183 7.24323 -3.14719 -1.26957 -2.47628 -3.97847 -3.24533 -7.77299 7.46679 6.6748 8.78229
